<svg xmlns="http://www.w3.org/2000/svg" width="330" height="339.76" viewBox="0 0 330 339.76">
  <defs>
    <style>
      .cls-1 {
        fill: #112d4e;
      }

      .cls-2 {
        opacity: 0.26;
      }

      .cls-3 {
        fill: #fafafa;
      }
    </style>
  </defs>
  <g id="Gruppe_24" data-name="Gruppe 24" transform="translate(13069 18664)">
    <g id="Gruppe_23" data-name="Gruppe 23" transform="translate(-325 -100)">
      <circle id="Ellipse_66" data-name="Ellipse 66" class="cls-1" cx="165" cy="165" r="165" transform="translate(-12744 -18564)"/>
      <path id="Ausschluss_68" data-name="Ausschluss 68" class="cls-2" d="M175.693,267.9l-152.3-65.757L80.823,0l99.325,41.264-.025.064a164.829,164.829,0,0,1,8.3,51.811,165.348,165.348,0,0,1-84.2,143.9l71.477,30.86Z" transform="translate(-12602.421 -18492.141)"/>
    </g>
    <g id="Gruppe_10" data-name="Gruppe 10" transform="translate(-13003 -18591.025)">
      <g id="Gruppe_13" data-name="Gruppe 13" transform="translate(-1 2.025)">
        <path id="Pfad_21" data-name="Pfad 21" class="cls-3" d="M24.423-.025,0,0,19.574,49.93l40.39-10.9h0Z" transform="translate(133 -2.975)"/>
        <path id="Pfad_21-2" data-name="Pfad 21" class="cls-3" d="M35.541-.025,59.964,0,40.39,49.93,0,39.033H0Z" transform="translate(6.97 -2.975)"/>
        <g id="Gruppe_14" data-name="Gruppe 14" transform="translate(0 -1)">
          <path id="Pfad_20" data-name="Pfad 20" class="cls-3" d="M19.994,0l60-.016L99.971,49.923,49.112,55.313,0,49.923Z" transform="translate(50 -1.974)"/>
          <path id="Pfad_27" data-name="Pfad 27" class="cls-3" d="M49.985,0,99.971,150l-48.916-5.24L0,150Z" transform="translate(149.971 200) rotate(180)"/>
        </g>
        <path id="Pfad_22" data-name="Pfad 22" class="cls-3" d="M89.781-10.959,49.966-.312,0,150.045,77.249,9.779Z" transform="translate(103 48.955)"/>
        <path id="Pfad_22-2" data-name="Pfad 22" class="cls-3" d="M0-10.959,39.815-.312,89.984,150.061,12.532,9.779Z" transform="translate(7 48.955)"/>
      </g>
    </g>
  </g>
</svg>
